<?xml version="1.0" encoding="UTF-8"?>
<!DOCTYPE svg PUBLIC "-//W3C//DTD SVG 1.0//EN" "http://www.w3.org/TR/2001/REC-SVG-20010904/DTD/svg10.dtd">
<!-- Creator: CorelDRAW 2021.5 -->
<svg xmlns="http://www.w3.org/2000/svg" xml:space="preserve" width="16.6667in" height="5.66667in" version="1.0" style="shape-rendering:geometricPrecision; text-rendering:geometricPrecision; image-rendering:optimizeQuality; fill-rule:evenodd; clip-rule:evenodd"
viewBox="0 0 16666.66 5666.66"
 xmlns:xlink="http://www.w3.org/1999/xlink"
 xmlns:xodm="http://www.corel.com/coreldraw/odm/2003">
 <defs>
  <style type="text/css">
   <![CDATA[
    .fil0 {fill:none}
    .fil2 {fill:#3361AC}
    .fil1 {fill:#E8AF30}
    .fil3 {fill:#3361AC;fill-rule:nonzero}
   ]]>
  </style>
 </defs>
 <g id="Layer_x0020_1">
  <metadata id="CorelCorpID_0Corel-Layer"/>
  <rect class="fil0" x="-0" y="-0" width="16666.66" height="5666.66"/>
  <g id="_2702365459488">
   <path class="fil1" d="M13668.99 3855.4c-822.8,0 -1489.77,-667.01 -1489.77,-1489.77 0,-496.58 0,-993.2 0,-1489.77 279.86,0 559.68,0 839.53,0 -0.04,471.56 0,943.11 -0.04,1414.7 0,201.11 40.48,390.95 187.4,537.91 251.7,251.74 657.44,255.45 913.86,11.5l240.66 267.93 317.5 353.53c-265.41,244.61 -619.87,393.97 -1009.15,393.97zm170.39 -2121.85c-59.81,-16 -121.28,-23.43 -182.83,-22.35l-399.67 0 0.04 -641.99c0,-64.46 0,-128.91 0,-193.36 137.35,0 274.7,0 412.06,0 409.31,0 780,165.09 1049.28,432.28l-878.89 425.42zm942.37 1622.44c-7.05,7.9 -14.14,15.72 -21.34,23.47 7.2,-7.75 14.29,-15.57 21.34,-23.47zm-24.6 27c-12.51,13.36 -25.22,26.5 -38.19,39.39 12.94,-12.86 25.72,-26.03 38.19,-39.39zm-51.63 52.56c-8.41,8.17 -16.93,16.19 -25.52,24.13 8.64,-7.98 17.16,-15.96 25.52,-24.13z"/>
   <path class="fil2" d="M14269.49 1742.93c-822.8,0 -1489.77,667.01 -1489.77,1489.77 0,496.58 0,993.2 0,1489.77 279.86,0 559.68,0 839.54,0 -0.04,-471.56 0,-943.11 -0.04,-1414.7 0,-201.11 40.48,-390.95 187.4,-537.91 255.61,-255.65 670.11,-255.53 925.72,0.04 255.65,255.57 255.53,670.03 -0.04,925.68 -130.96,130.96 -303.64,194.8 -475.24,191.54l-399.66 0 0.04 641.99c0,64.45 0,128.91 0,193.36 137.35,0 274.71,0 412.06,0 822.76,0 1489.77,-666.97 1489.77,-1489.77 0,-822.76 -667.01,-1489.77 -1489.77,-1489.77z"/>
   <path class="fil2" d="M9312.95 4121.1l332.76 0c60.53,0 109.9,-49.37 109.9,-109.9 0,-528.53 0,-1194.27 0,-1722.8 0,-60.53 -49.37,-109.9 -109.9,-109.9l-332.76 0c-60.53,0 -109.9,49.4 -109.9,109.9l0 188.72 0 1534.08c0,60.52 49.37,109.9 109.9,109.9z"/>
   <path class="fil1" d="M7255.98 4121.1l332.76 0c60.53,0 109.9,-49.37 109.9,-109.9 0,-528.53 0,-1194.27 0,-1722.8 0,-60.53 -49.37,-109.9 -109.9,-109.9l-332.76 0c-60.53,0 -109.9,49.4 -109.9,109.9l0 188.72 0 1534.08c0,60.52 49.37,109.9 109.9,109.9z"/>
   <path class="fil1" d="M5822.34 2855.33l0 332.76c0,60.42 49.37,109.9 109.9,109.9l343.15 0 9.51 0 20.67 0 18.67 0 27.54 0c5.11,0 9.83,-0.47 14.28,-1.31 358.72,-21.61 642.99,-319.33 642.99,-683.49 0,-364.34 -284.53,-662.2 -643.54,-683.52 -4.26,-0.8 -8.85,-1.2 -13.72,-1.2l-21.5 0 -398.04 0c-60.42,0 -109.9,49.59 -109.9,109.9l0 332.76c0,60.42 49.37,109.9 109.9,109.9l529.44 0 0 264.41 -529.44 0c-60.39,0 -109.9,49.63 -109.9,109.9z"/>
   <path class="fil1" d="M8242.41 3298l0.03 0c364.34,0 662.2,-284.53 683.53,-643.54 0.79,-4.26 1.2,-8.85 1.2,-13.72l0 -21.5 0 -398.04c0,-60.42 -49.63,-109.9 -109.9,-109.9l-332.76 0c-60.39,0 -109.9,49.37 -109.9,109.9l0 529.44 -132.19 0 -411.56 0 -132.21 0 0 -529.44c0,-60.39 -49.63,-109.9 -109.9,-109.9l-332.76 0c-60.42,0 -109.9,49.37 -109.9,109.9l0 343.15 0 9.51 0 20.67 0 18.67 0 27.54c0,5.1 0.47,9.83 1.31,14.28 21.61,358.7 319.31,642.97 683.46,642.99l411.56 0z"/>
   <path class="fil2" d="M10348.58 1074.21l-332.76 0c-60.34,0 -109.9,49.37 -109.9,109.9 0,459.95 0,995.6 0,1455.55l0 0.24 0 0.22 0 0.24 0 0.24 0.02 0.23 0 0.24 0 0.24 0 0.23 0.02 0.24 0 0.23c0.13,5.69 0.66,11.26 1.62,16.7 23.96,356.43 320.59,638.17 683.12,638.19l274.37 0 0.03 0c364.34,0 662.2,-284.53 683.52,-643.54 0.8,-4.26 1.2,-8.85 1.2,-13.72l0 -21.5 0 -398.04c0,-60.42 -49.59,-109.9 -109.9,-109.9l-332.76 0c-60.42,0 -109.9,49.37 -109.9,109.9l0 529.44 -132.19 0 -274.37 0 -132.21 0 0 -109.9 0 -419.54 0 -1036.01c0,-60.35 -49.76,-109.9 -109.9,-109.9z"/>
   <path class="fil2" d="M10561.5 3533.43c-60.42,0 -109.9,49.59 -109.9,109.9l0 332.76c0,60.42 49.37,109.9 109.9,109.9 110.92,0 221.84,0 332.76,0 60.53,0 109.9,-49.48 109.9,-109.9 0,-110.92 0,-221.84 0,-332.76 0,-60.3 -49.48,-109.9 -109.9,-109.9 -110.92,0 -221.84,0 -332.76,0z"/>
   <path class="fil1" d="M5231.15 3298c110.92,0 221.84,0 332.76,0 60.53,0 109.9,-49.37 109.9,-109.9 0,-528.54 0,-1474.37 0,-2002.91 0,-60.53 -49.37,-109.9 -109.9,-109.9 -110.92,0 -221.84,0 -332.76,0 -60.53,0 -109.9,49.4 -109.9,109.9 0,62.91 0,125.81 0,188.72 0,419.9 0,1394.29 0,1814.18 0,60.53 49.37,109.9 109.9,109.9z"/>
   <path class="fil1" d="M1350.07 1974.11l-332.76 0c-60.28,0 -109.9,49.37 -109.9,109.9 0,139.84 0,416.88 0,556.72 0,5.1 0.47,9.83 1.31,14.28 21.61,358.72 319.33,642.99 683.5,642.99l0.66 -0.02 1076.98 0 0 -0.29c6.59,0.18 -60.02,0.31 19.83,0.31 79.84,0 294.41,-50.24 408.44,-135.13 114.03,84.89 329.59,135.13 408.44,135.13 78.86,0 9.28,-0.07 13.93,-0.17 1.96,0.11 3.92,0.17 5.9,0.17l754.7 0 9.51 0 20.68 0 18.66 0 27.55 0c5.1,0 9.83,-0.47 14.27,-1.31 358.72,-21.61 642.99,-319.33 642.99,-683.49 0,-364.34 -284.53,-662.2 -643.54,-683.52 -4.26,-0.8 -8.85,-1.2 -13.72,-1.2l-21.5 0 -535.22 0c-60.39,0 -109.9,49.63 -109.9,109.9l0 332.76c0,60.39 49.37,109.9 109.9,109.9l666.63 0 0 264.41 -941 0c-11.5,0 -22.68,1.83 -33.18,5.2l-118.81 0 0 -108.77 0 -0.22 0 -0.23 0 -0.23 0 -0.22 0 -0.23 0 -21.5 0 -398.04 0 -137.19c0,-60.53 -49.56,-109.9 -109.9,-109.9l-332.76 0c-60.22,0 -109.9,49.53 -109.9,109.9l0 137.19 0 398.04 0 21.5 0 0.23 0 0.22 0 0.23 0 0.23 0 0.22 0 108.77 -151.99 0 -1076.98 0 -132.91 0 0 -666.63c0,-60.39 -49.92,-109.9 -109.9,-109.9z"/>
   <path class="fil1" d="M3800.78 1190.15c-60.42,0 -109.9,49.59 -109.9,109.9l0 332.76c0,60.42 49.37,109.9 109.9,109.9 110.92,0 221.84,0 332.76,0 60.53,0 109.9,-49.48 109.9,-109.9 0,-110.92 0,-221.84 0,-332.76 0,-60.3 -49.48,-109.9 -109.9,-109.9 -110.92,0 -221.84,0 -332.76,0z"/>
   <path class="fil1" d="M1622.03 1190.15c-60.42,0 -109.9,49.59 -109.9,109.9l0 332.76c0,60.42 49.37,109.9 109.9,109.9 110.92,0 907.77,0 1018.69,0 60.53,0 109.9,-49.48 109.9,-109.9 0,-110.92 0,-221.84 0,-332.76 0,-60.3 -49.48,-109.9 -109.9,-109.9 -110.92,0 -907.77,0 -1018.69,0z"/>
   <path class="fil1" d="M7912.21 3568.57c-60.42,0 -109.9,49.59 -109.9,109.9 0,110.92 0,221.84 0,332.76 0,60.42 49.37,109.9 109.9,109.9 110.92,0 794.14,0 905.06,0 60.53,0 109.9,-49.48 109.9,-109.9 0,-110.92 0,-221.84 0,-332.76 0,-60.31 -49.48,-109.9 -109.9,-109.9 -110.92,0 -794.14,0 -905.06,0z"/>
   <path class="fil1" d="M7945.64 4238.24c-60.42,0 -109.9,49.59 -109.9,109.9l0 332.76c0,60.42 49.37,109.9 109.9,109.9 110.92,0 221.84,0 332.76,0 60.53,0 109.9,-49.48 109.9,-109.9 0,-110.92 0,-221.84 0,-332.76 0,-60.3 -49.48,-109.9 -109.9,-109.9 -110.92,0 -221.84,0 -332.76,0z"/>
   <path class="fil3" d="M1371.42 3771.56c42.74,9.29 75.73,27.72 98.96,55.29 23.23,27.57 34.85,63.03 34.85,106.4 0,55.75 -20.6,98.65 -61.8,128.7 -41.2,30.04 -102.06,45.07 -182.6,45.07l-299.22 0 0 -650.47 280.63 0c72.48,0 128.7,14.56 168.66,43.68 39.96,29.11 59.94,70.31 59.94,123.59 0,35.93 -8.83,66.44 -26.48,91.53 -17.66,25.09 -41.97,43.83 -72.94,56.22zm-341.04 -258.33l0 236.03 207.22 0c52.65,0 93.23,-10.07 121.73,-30.2 28.5,-20.13 42.74,-49.41 42.74,-87.81 0,-38.41 -14.25,-67.68 -42.74,-87.81 -28.5,-20.13 -69.07,-30.2 -121.73,-30.2l-207.22 0zm229.52 537.1c58.23,0 102.22,-9.91 131.95,-29.74 29.74,-19.82 44.61,-50.8 44.61,-92.92 0,-81.16 -58.85,-121.73 -176.56,-121.73l-229.52 0 0 244.39 229.52 0zm559.41 -435.81c63.81,0 112.75,15.95 146.82,47.86 34.07,31.9 51.11,79.14 51.11,141.71l0 302.93 -63.19 0 0 -76.2c-14.87,25.4 -36.7,45.22 -65.51,59.47 -28.81,14.25 -63.04,21.37 -102.68,21.37 -54.52,0 -97.88,-13.01 -130.09,-39.03 -32.21,-26.02 -48.32,-60.4 -48.32,-103.15 0,-41.51 15.02,-74.96 45.07,-100.36 30.04,-25.4 77.9,-38.1 143.57,-38.1l155.19 0 0 -29.74c0,-42.13 -11.77,-74.19 -35.31,-96.18 -23.54,-21.99 -57.93,-32.99 -103.15,-32.99 -30.98,0 -60.71,5.11 -89.21,15.33 -28.5,10.22 -52.97,24.31 -73.41,42.28l-29.74 -49.25c24.78,-21.06 54.52,-37.32 89.21,-48.78 34.69,-11.46 71.24,-17.19 109.65,-17.19zm-23.23 445.11c37.17,0 69.07,-8.52 95.71,-25.56 26.64,-17.04 46.46,-41.66 59.47,-73.87l0 -79.92 -153.33 0c-83.63,0 -125.44,29.12 -125.44,87.35 0,28.5 10.84,50.95 32.52,67.37 21.69,16.42 52.04,24.63 91.07,24.63zm463.7 -345.68c15.48,-32.83 38.56,-57.61 69.23,-74.34 30.67,-16.73 68.61,-25.09 113.83,-25.09l0 64.12 -15.8 -0.93c-51.42,0 -91.69,15.8 -120.8,47.39 -29.11,31.59 -43.67,75.89 -43.67,132.88l0 249.04 -65.98 0 0 -488.78 63.19 0 0 95.71zm810.3 -257.4c83.01,0 148.06,19.83 195.14,59.47 47.08,39.65 70.63,94.17 70.63,163.55 0,69.39 -23.54,123.74 -70.63,163.08 -47.08,39.34 -112.13,59.01 -195.14,59.01l-174.7 0 0 205.36 -68.76 0 0 -650.47 243.46 0zm-1.86 384.71c64.43,0 113.68,-14.09 147.75,-42.28 34.07,-28.19 51.11,-67.99 51.11,-119.41 0,-52.66 -17.04,-93.08 -51.11,-121.27 -34.07,-28.19 -83.32,-42.28 -147.75,-42.28l-172.84 0 0 325.24 172.84 0zm568.7 -226.74c63.81,0 112.75,15.95 146.82,47.86 34.07,31.9 51.11,79.14 51.11,141.71l0 302.93 -63.19 0 0 -76.2c-14.87,25.4 -36.7,45.22 -65.51,59.47 -28.81,14.25 -63.04,21.37 -102.68,21.37 -54.52,0 -97.88,-13.01 -130.09,-39.03 -32.21,-26.02 -48.32,-60.4 -48.32,-103.15 0,-41.51 15.02,-74.96 45.07,-100.36 30.04,-25.4 77.9,-38.1 143.57,-38.1l155.19 0 0 -29.74c0,-42.13 -11.77,-74.19 -35.31,-96.18 -23.54,-21.99 -57.93,-32.99 -103.15,-32.99 -30.98,0 -60.71,5.11 -89.21,15.33 -28.5,10.22 -52.97,24.31 -73.41,42.28l-29.74 -49.25c24.78,-21.06 54.52,-37.32 89.21,-48.78 34.69,-11.46 71.24,-17.19 109.65,-17.19zm-23.23 445.11c37.17,0 69.07,-8.52 95.71,-25.56 26.64,-17.04 46.46,-41.66 59.47,-73.87l0 -79.92 -153.33 0c-83.63,0 -125.44,29.12 -125.44,87.35 0,28.5 10.84,50.95 32.52,67.37 21.69,16.42 52.04,24.63 91.07,24.63zm463.7 -345.68c15.48,-32.83 38.56,-57.61 69.23,-74.34 30.67,-16.73 68.61,-25.09 113.83,-25.09l0 64.12 -15.8 -0.93c-51.42,0 -91.69,15.8 -120.8,47.39 -29.11,31.59 -43.67,75.89 -43.67,132.88l0 249.04 -65.98 0 0 -488.78 63.19 0 0 95.71zm743.39 -296.43l0 689.5 -63.19 0 0 -96.64c-19.82,32.83 -46,57.92 -78.52,75.27 -32.52,17.35 -69.23,26.02 -110.11,26.02 -45.84,0 -87.35,-10.53 -124.52,-31.59 -37.17,-21.06 -66.29,-50.49 -87.35,-88.28 -21.06,-37.79 -31.59,-80.85 -31.59,-129.17 0,-48.32 10.53,-91.38 31.59,-129.17 21.06,-37.79 50.18,-67.06 87.35,-87.81 37.17,-20.75 78.68,-31.13 124.52,-31.13 39.65,0 75.42,8.21 107.33,24.63 31.9,16.42 58.08,40.42 78.52,72.02l0 -293.64 65.98 0zm-246.25 635.6c34.07,0 64.89,-7.9 92.46,-23.69 27.57,-15.8 49.25,-38.26 65.05,-67.37 15.8,-29.12 23.69,-62.26 23.69,-99.43 0,-37.17 -7.9,-70.31 -23.69,-99.43 -15.8,-29.12 -37.48,-51.57 -65.05,-67.37 -27.57,-15.8 -58.39,-23.7 -92.46,-23.7 -34.69,0 -65.82,7.9 -93.39,23.7 -27.57,15.8 -49.25,38.25 -65.05,67.37 -15.8,29.11 -23.7,62.26 -23.7,99.43 0,37.17 7.9,70.31 23.7,99.43 15.8,29.11 37.48,51.57 65.05,67.37 27.57,15.8 58.7,23.69 93.39,23.69zm601.22 -438.6c63.81,0 112.75,15.95 146.82,47.86 34.07,31.9 51.11,79.14 51.11,141.71l0 302.93 -63.19 0 0 -76.2c-14.87,25.4 -36.7,45.22 -65.51,59.47 -28.81,14.25 -63.04,21.37 -102.68,21.37 -54.52,0 -97.88,-13.01 -130.09,-39.03 -32.21,-26.02 -48.32,-60.4 -48.32,-103.15 0,-41.51 15.02,-74.96 45.07,-100.36 30.04,-25.4 77.9,-38.1 143.57,-38.1l155.19 0 0 -29.74c0,-42.13 -11.77,-74.19 -35.31,-96.18 -23.54,-21.99 -57.93,-32.99 -103.15,-32.99 -30.98,0 -60.71,5.11 -89.21,15.33 -28.5,10.22 -52.97,24.31 -73.41,42.28l-29.74 -49.25c24.78,-21.06 54.52,-37.32 89.21,-48.78 34.69,-11.46 71.24,-17.19 109.65,-17.19zm-23.23 445.11c37.17,0 69.07,-8.52 95.71,-25.56 26.64,-17.04 46.46,-41.66 59.47,-73.87l0 -79.92 -153.33 0c-83.63,0 -125.44,29.12 -125.44,87.35 0,28.5 10.84,50.95 32.52,67.37 21.69,16.42 52.04,24.63 91.07,24.63zm581.71 -197.93l-115.22 105.93 0 139.39 -65.98 0 0 -689.5 65.98 0 0 467.41 291.78 -266.69 81.77 0 -209.08 199.79 228.59 289 -80.85 0 -197 -245.32zm626.31 -247.18c61.33,0 110.12,17.81 146.36,53.43 36.24,35.62 54.36,87.5 54.36,155.65l0 283.42 -65.98 0 0 -276.91c0,-50.8 -12.7,-89.52 -38.1,-116.16 -25.4,-26.64 -61.64,-39.96 -108.72,-39.96 -52.66,0 -94.32,15.64 -124.98,46.93 -30.67,31.29 -46,74.5 -46,129.63l0 256.47 -65.98 0 0 -689.5 65.98 0 0 286.21c17.96,-28.5 42.74,-50.49 74.34,-65.98 31.59,-15.49 67.83,-23.23 108.72,-23.23zm637.46 462.76c-12.39,11.15 -27.72,19.67 -46,25.56 -18.28,5.89 -37.32,8.83 -57.15,8.83 -45.84,0 -81.15,-12.39 -105.93,-37.17 -24.78,-24.78 -37.17,-59.78 -37.17,-105l0 -295.5 -87.35 0 0 -55.76 87.35 0 0 -106.86 65.98 0 0 106.86 148.68 0 0 55.76 -148.68 0 0 291.78c0,29.11 7.28,51.26 21.84,66.44 14.56,15.18 35.46,22.76 62.72,22.76 13.63,0 26.79,-2.17 39.49,-6.5 12.7,-4.33 23.7,-10.53 32.99,-18.58l23.23 47.39z"/>
   <path class="fil1" d="M14119.97 2839.97l11.85 -11.54c255.65,-255.57 255.53,-670.03 -0.04,-925.68 -84.06,-84.05 -185.31,-140.41 -292.41,-169.19l878.89 -425.42c272,269.91 440.49,644 440.49,1057.5 0,433.44 -185.15,823.54 -480.62,1095.8l-320.02 -356.28 -238.14 -265.18z"/>
  </g>
 </g>
</svg>
